<svg width="225" height="119" viewBox="0 0 225 119" fill="none" xmlns="http://www.w3.org/2000/svg">
<circle cx="161" cy="60" r="44" fill="url(#paint0_linear_29_4)" fill-opacity="0.7"/>
<path d="M31.104 75.432C27.68 75.432 24.752 74.728 22.32 73.32C19.888 71.912 18.016 69.912 16.704 67.32C15.424 64.696 14.784 61.608 14.784 58.056C14.784 55.4 15.152 53.016 15.888 50.904C16.624 48.76 17.68 46.936 19.056 45.432C20.464 43.896 22.176 42.728 24.192 41.928C26.24 41.128 28.544 40.728 31.104 40.728C32.992 40.728 34.8 40.984 36.528 41.496C38.288 42.008 39.808 42.744 41.088 43.704C41.632 44.056 41.984 44.488 42.144 45C42.336 45.48 42.368 45.944 42.24 46.392C42.144 46.84 41.936 47.224 41.616 47.544C41.296 47.832 40.88 47.992 40.368 48.024C39.888 48.056 39.36 47.88 38.784 47.496C37.728 46.696 36.56 46.104 35.28 45.72C34 45.336 32.656 45.144 31.248 45.144C28.816 45.144 26.768 45.656 25.104 46.68C23.44 47.672 22.176 49.128 21.312 51.048C20.448 52.968 20.016 55.304 20.016 58.056C20.016 60.808 20.448 63.16 21.312 65.112C22.176 67.032 23.44 68.504 25.104 69.528C26.768 70.52 28.816 71.016 31.248 71.016C32.656 71.016 34 70.824 35.28 70.44C36.592 70.024 37.824 69.416 38.976 68.616C39.552 68.264 40.064 68.104 40.512 68.136C40.992 68.168 41.392 68.328 41.712 68.616C42.032 68.904 42.24 69.272 42.336 69.72C42.464 70.136 42.448 70.584 42.288 71.064C42.16 71.512 41.856 71.896 41.376 72.216C40.064 73.272 38.512 74.072 36.72 74.616C34.928 75.16 33.056 75.432 31.104 75.432ZM49.7366 75.432C48.1046 75.432 46.6326 75.112 45.3206 74.472C44.0406 73.832 43.0326 72.968 42.2966 71.88C41.5606 70.792 41.1926 69.56 41.1926 68.184C41.1926 66.456 41.6246 65.096 42.4886 64.104C43.3846 63.08 44.8406 62.36 46.8566 61.944C48.9046 61.496 51.6566 61.272 55.1126 61.272H57.3686V64.248H55.1606C52.8566 64.248 51.0326 64.36 49.6886 64.584C48.3446 64.808 47.3846 65.192 46.8086 65.736C46.2646 66.248 45.9926 66.968 45.9926 67.896C45.9926 69.112 46.4086 70.104 47.2406 70.872C48.0726 71.608 49.2246 71.976 50.6966 71.976C51.8806 71.976 52.9206 71.704 53.8166 71.16C54.7126 70.584 55.4166 69.816 55.9286 68.856C56.4726 67.896 56.7446 66.792 56.7446 65.544V60.024C56.7446 58.2 56.3606 56.888 55.5926 56.088C54.8246 55.288 53.5606 54.888 51.8006 54.888C50.7766 54.888 49.7046 55.016 48.5846 55.272C47.4966 55.528 46.3606 55.96 45.1766 56.568C44.6326 56.824 44.1686 56.904 43.7846 56.808C43.4006 56.712 43.0966 56.504 42.8726 56.184C42.6486 55.832 42.5206 55.464 42.4886 55.08C42.4886 54.664 42.5846 54.264 42.7766 53.88C43.0006 53.496 43.3686 53.208 43.8806 53.016C45.2886 52.344 46.6806 51.864 48.0566 51.576C49.4326 51.288 50.7286 51.144 51.9446 51.144C54.0886 51.144 55.8486 51.48 57.2246 52.152C58.6326 52.824 59.6726 53.848 60.3446 55.224C61.0166 56.6 61.3526 58.376 61.3526 60.552V72.888C61.3526 73.656 61.1606 74.264 60.7766 74.712C60.3926 75.128 59.8326 75.336 59.0966 75.336C58.3926 75.336 57.8326 75.128 57.4166 74.712C57.0006 74.264 56.7926 73.656 56.7926 72.888V69.768H57.2246C56.9686 70.952 56.4886 71.976 55.7846 72.84C55.1126 73.672 54.2646 74.312 53.2406 74.76C52.2166 75.208 51.0486 75.432 49.7366 75.432ZM65.6299 75.336C64.8619 75.336 64.2699 75.128 63.8539 74.712C63.4379 74.264 63.2299 73.656 63.2299 72.888V43.272C63.2299 42.472 63.4379 41.864 63.8539 41.448C64.2699 41.032 64.8619 40.824 65.6299 40.824C66.3979 40.824 66.9899 41.032 67.4059 41.448C67.8539 41.864 68.0779 42.472 68.0779 43.272V61.8H68.1739L77.1499 52.872C77.6619 52.36 78.1259 51.96 78.5419 51.672C78.9579 51.384 79.5019 51.24 80.1739 51.24C80.8459 51.24 81.3579 51.416 81.7099 51.768C82.0619 52.12 82.2379 52.552 82.2379 53.064C82.2379 53.544 81.9979 54.04 81.5179 54.552L72.0139 63.96V61.704L82.3819 72.024C82.8939 72.536 83.1339 73.048 83.1019 73.56C83.0699 74.072 82.8619 74.504 82.4779 74.856C82.0939 75.176 81.6139 75.336 81.0379 75.336C80.3019 75.336 79.7099 75.192 79.2619 74.904C78.8459 74.616 78.3499 74.184 77.7739 73.608L68.1739 64.296H68.0779V72.888C68.0779 74.52 67.2619 75.336 65.6299 75.336ZM93.6562 75.432C91.0962 75.432 88.8882 74.952 87.0322 73.992C85.2082 73 83.7842 71.608 82.7602 69.816C81.7682 67.992 81.2722 65.832 81.2722 63.336C81.2722 60.904 81.7682 58.776 82.7602 56.952C83.7522 55.128 85.1122 53.704 86.8402 52.68C88.5682 51.656 90.5362 51.144 92.7442 51.144C94.3762 51.144 95.8322 51.416 97.1122 51.96C98.3922 52.472 99.4802 53.24 100.376 54.264C101.304 55.256 101.992 56.472 102.44 57.912C102.92 59.352 103.16 60.968 103.16 62.76C103.16 63.304 103 63.72 102.68 64.008C102.36 64.264 101.88 64.392 101.24 64.392H85.1122V61.416H99.8962L99.0802 62.088C99.0802 60.488 98.8402 59.128 98.3602 58.008C97.9122 56.888 97.2242 56.04 96.2962 55.464C95.4002 54.856 94.2802 54.552 92.9362 54.552C91.4322 54.552 90.1522 54.904 89.0962 55.608C88.0722 56.312 87.2882 57.288 86.7442 58.536C86.2002 59.784 85.9282 61.24 85.9282 62.904V63.192C85.9282 66.008 86.5842 68.136 87.8962 69.576C89.2402 70.984 91.1762 71.688 93.7042 71.688C94.6642 71.688 95.6722 71.56 96.7282 71.304C97.8162 71.048 98.8403 70.616 99.8003 70.008C100.344 69.688 100.824 69.544 101.24 69.576C101.688 69.608 102.04 69.752 102.296 70.008C102.584 70.264 102.76 70.584 102.824 70.968C102.888 71.352 102.824 71.752 102.632 72.168C102.44 72.552 102.104 72.904 101.624 73.224C100.536 73.96 99.2722 74.52 97.8322 74.904C96.3922 75.256 95.0002 75.432 93.6562 75.432ZM119.342 75.432C115.918 75.432 112.99 74.728 110.558 73.32C108.126 71.912 106.254 69.912 104.942 67.32C103.662 64.696 103.022 61.608 103.022 58.056C103.022 55.4 103.39 53.016 104.126 50.904C104.862 48.76 105.918 46.936 107.294 45.432C108.702 43.896 110.414 42.728 112.43 41.928C114.478 41.128 116.782 40.728 119.342 40.728C121.23 40.728 123.038 40.984 124.766 41.496C126.526 42.008 128.046 42.744 129.326 43.704C129.87 44.056 130.222 44.488 130.382 45C130.574 45.48 130.606 45.944 130.478 46.392C130.382 46.84 130.174 47.224 129.854 47.544C129.534 47.832 129.118 47.992 128.606 48.024C128.126 48.056 127.598 47.88 127.022 47.496C125.966 46.696 124.798 46.104 123.518 45.72C122.238 45.336 120.894 45.144 119.486 45.144C117.054 45.144 115.006 45.656 113.342 46.68C111.678 47.672 110.414 49.128 109.55 51.048C108.686 52.968 108.254 55.304 108.254 58.056C108.254 60.808 108.686 63.16 109.55 65.112C110.414 67.032 111.678 68.504 113.342 69.528C115.006 70.52 117.054 71.016 119.486 71.016C120.894 71.016 122.238 70.824 123.518 70.44C124.83 70.024 126.062 69.416 127.214 68.616C127.79 68.264 128.302 68.104 128.75 68.136C129.23 68.168 129.63 68.328 129.95 68.616C130.27 68.904 130.478 69.272 130.574 69.72C130.702 70.136 130.686 70.584 130.526 71.064C130.398 71.512 130.094 71.896 129.614 72.216C128.302 73.272 126.75 74.072 124.958 74.616C123.166 75.16 121.294 75.432 119.342 75.432ZM137.974 75.432C136.342 75.432 134.87 75.112 133.558 74.472C132.278 73.832 131.27 72.968 130.534 71.88C129.798 70.792 129.43 69.56 129.43 68.184C129.43 66.456 129.862 65.096 130.726 64.104C131.622 63.08 133.078 62.36 135.094 61.944C137.142 61.496 139.894 61.272 143.35 61.272H145.606V64.248H143.398C141.094 64.248 139.27 64.36 137.926 64.584C136.582 64.808 135.622 65.192 135.046 65.736C134.502 66.248 134.23 66.968 134.23 67.896C134.23 69.112 134.646 70.104 135.478 70.872C136.31 71.608 137.462 71.976 138.934 71.976C140.118 71.976 141.158 71.704 142.054 71.16C142.95 70.584 143.654 69.816 144.166 68.856C144.71 67.896 144.982 66.792 144.982 65.544V60.024C144.982 58.2 144.598 56.888 143.83 56.088C143.062 55.288 141.798 54.888 140.038 54.888C139.014 54.888 137.942 55.016 136.822 55.272C135.734 55.528 134.598 55.96 133.414 56.568C132.87 56.824 132.406 56.904 132.022 56.808C131.638 56.712 131.334 56.504 131.11 56.184C130.886 55.832 130.758 55.464 130.726 55.08C130.726 54.664 130.822 54.264 131.014 53.88C131.238 53.496 131.606 53.208 132.118 53.016C133.526 52.344 134.918 51.864 136.294 51.576C137.67 51.288 138.966 51.144 140.182 51.144C142.326 51.144 144.086 51.48 145.462 52.152C146.87 52.824 147.91 53.848 148.582 55.224C149.254 56.6 149.59 58.376 149.59 60.552V72.888C149.59 73.656 149.398 74.264 149.014 74.712C148.63 75.128 148.07 75.336 147.334 75.336C146.63 75.336 146.07 75.128 145.654 74.712C145.238 74.264 145.03 73.656 145.03 72.888V69.768H145.462C145.206 70.952 144.726 71.976 144.022 72.84C143.35 73.672 142.502 74.312 141.478 74.76C140.454 75.208 139.286 75.432 137.974 75.432ZM159.003 75.432C156.507 75.432 154.619 74.712 153.339 73.272C152.091 71.8 151.467 69.688 151.467 66.936V43.272C151.467 42.472 151.675 41.864 152.091 41.448C152.507 41.032 153.099 40.824 153.867 40.824C154.635 40.824 155.227 41.032 155.643 41.448C156.091 41.864 156.315 42.472 156.315 43.272V66.648C156.315 68.248 156.635 69.448 157.275 70.248C157.947 71.016 158.907 71.4 160.155 71.4C160.443 71.4 160.699 71.4 160.923 71.4C161.147 71.368 161.371 71.336 161.595 71.304C161.979 71.272 162.251 71.384 162.411 71.64C162.571 71.864 162.651 72.344 162.651 73.08C162.651 73.752 162.507 74.28 162.219 74.664C161.931 75.016 161.467 75.24 160.827 75.336C160.539 75.368 160.235 75.384 159.915 75.384C159.595 75.416 159.291 75.432 159.003 75.432ZM171.425 75.432C169.025 75.432 166.945 74.936 165.185 73.944C163.457 72.92 162.113 71.496 161.153 69.672C160.193 67.816 159.713 65.64 159.713 63.144C159.713 61.288 159.985 59.624 160.529 58.152C161.073 56.648 161.841 55.384 162.833 54.36C163.857 53.336 165.089 52.552 166.529 52.008C168.001 51.432 169.633 51.144 171.425 51.144C172.545 51.144 173.713 51.32 174.929 51.672C176.177 51.992 177.329 52.536 178.385 53.304C178.801 53.56 179.057 53.88 179.153 54.264C179.281 54.616 179.297 54.984 179.201 55.368C179.137 55.752 178.961 56.088 178.673 56.376C178.417 56.632 178.097 56.792 177.713 56.856C177.329 56.888 176.913 56.776 176.465 56.52C175.697 55.976 174.913 55.592 174.113 55.368C173.313 55.112 172.545 54.984 171.809 54.984C170.657 54.984 169.633 55.176 168.737 55.56C167.873 55.912 167.137 56.44 166.529 57.144C165.921 57.816 165.457 58.664 165.137 59.688C164.849 60.712 164.705 61.88 164.705 63.192C164.705 65.816 165.313 67.88 166.529 69.384C167.777 70.856 169.537 71.592 171.809 71.592C172.545 71.592 173.313 71.48 174.113 71.256C174.913 71.032 175.697 70.648 176.465 70.104C176.913 69.848 177.329 69.752 177.713 69.816C178.097 69.88 178.401 70.056 178.625 70.344C178.881 70.6 179.041 70.92 179.105 71.304C179.201 71.656 179.185 72.024 179.057 72.408C178.929 72.792 178.657 73.112 178.241 73.368C177.217 74.104 176.097 74.632 174.881 74.952C173.697 75.272 172.545 75.432 171.425 75.432Z" fill="black"/>
<defs>
<linearGradient id="paint0_linear_29_4" x1="161" y1="16" x2="161" y2="104" gradientUnits="userSpaceOnUse">
<stop stop-color="#9901E1"/>
<stop offset="1" stop-color="#E67C00"/>
</linearGradient>
</defs>
</svg>
